<svg width="955" height="925" viewBox="0 0 955 925" fill="none" xmlns="http://www.w3.org/2000/svg">
<g clip-path="url(#clip0)">
<path d="M161.863 263.4H166.863V258.4H161.863V263.4ZM161.263 263.4V258.4H158.172L156.79 261.164L161.263 263.4ZM151.063 283.8L155.442 286.212L155.49 286.125L155.535 286.036L151.063 283.8ZM123.863 333.2L119.464 335.578L123.822 343.639L128.242 335.612L123.863 333.2ZM97.2625 284L92.7581 286.17L92.8087 286.275L92.8642 286.378L97.2625 284ZM86.6625 262L91.1669 259.83L89.8035 257H86.6625V262ZM86.0625 262V257H81.0625V262H86.0625ZM86.0625 355V360H91.0625V355H86.0625ZM57.4625 355H52.4625V360H57.4625V355ZM57.4625 215.4V210.4H52.4625V215.4H57.4625ZM89.6625 215.4L94.0932 213.083L92.6902 210.4H89.6625V215.4ZM123.863 280.8L119.432 283.117L120.835 285.8H123.863V280.8ZM124.263 280.8V285.8H127.307L128.704 283.096L124.263 280.8ZM158.063 215.4V210.4H155.018L153.621 213.104L158.063 215.4ZM190.463 215.4H195.463V210.4H190.463V215.4ZM190.463 355V360H195.463V355H190.463ZM161.863 355H156.863V360H161.863V355ZM161.863 258.4H161.263V268.4H161.863V258.4ZM156.79 261.164L146.59 281.564L155.535 286.036L165.735 265.636L156.79 261.164ZM146.683 281.388L119.483 330.788L128.242 335.612L155.442 286.212L146.683 281.388ZM128.261 330.822L101.661 281.622L92.8642 286.378L119.464 335.578L128.261 330.822ZM101.767 281.83L91.1669 259.83L82.1581 264.17L92.7581 286.17L101.767 281.83ZM86.6625 257H86.0625V267H86.6625V257ZM81.0625 262V355H91.0625V262H81.0625ZM86.0625 350H57.4625V360H86.0625V350ZM62.4625 355V215.4H52.4625V355H62.4625ZM57.4625 220.4H89.6625V210.4H57.4625V220.4ZM85.2318 217.717L119.432 283.117L128.293 278.483L94.0932 213.083L85.2318 217.717ZM123.863 285.8H124.263V275.8H123.863V285.8ZM128.704 283.096L162.504 217.696L153.621 213.104L119.821 278.504L128.704 283.096ZM158.063 220.4H190.463V210.4H158.063V220.4ZM185.463 215.4V355H195.463V215.4H185.463ZM190.463 350H161.863V360H190.463V350ZM166.863 355V263.4H156.863V355H166.863ZM215.93 355H210.93V360H215.93V355ZM215.93 330.8V325.8H210.93V330.8H215.93ZM233.93 330.8V335.8H238.93V330.8H233.93ZM233.93 239.6H238.93V234.6H233.93V239.6ZM215.93 239.6H210.93V244.6H215.93V239.6ZM215.93 215.4V210.4H210.93V215.4H215.93ZM282.33 215.4H287.33V210.4H282.33V215.4ZM282.33 239.6V244.6H287.33V239.6H282.33ZM264.33 239.6V234.6H259.33V239.6H264.33ZM264.33 330.8H259.33V335.8H264.33V330.8ZM282.33 330.8H287.33V325.8H282.33V330.8ZM282.33 355V360H287.33V355H282.33ZM220.93 355V330.8H210.93V355H220.93ZM215.93 335.8H233.93V325.8H215.93V335.8ZM238.93 330.8V239.6H228.93V330.8H238.93ZM233.93 234.6H215.93V244.6H233.93V234.6ZM220.93 239.6V215.4H210.93V239.6H220.93ZM215.93 220.4H282.33V210.4H215.93V220.4ZM277.33 215.4V239.6H287.33V215.4H277.33ZM282.33 234.6H264.33V244.6H282.33V234.6ZM259.33 239.6V330.8H269.33V239.6H259.33ZM264.33 335.8H282.33V325.8H264.33V335.8ZM277.33 330.8V355H287.33V330.8H277.33ZM282.33 350H215.93V360H282.33V350ZM321.658 351.2L319.422 355.672L319.45 355.686L319.478 355.7L321.658 351.2ZM299.858 334.8L296.305 331.282L292.984 334.636L296.141 338.145L299.858 334.8ZM319.858 314.6L323.597 311.281L320.057 307.292L316.305 311.082L319.858 314.6ZM371.458 326L374.7 329.806L374.7 329.806L371.458 326ZM373.658 304.2L369.753 307.323L369.793 307.373L369.833 307.421L373.658 304.2ZM360.658 298.8L361.365 293.85L361.335 293.846L361.305 293.842L360.658 298.8ZM346.858 297L347.505 292.042L347.494 292.041L347.483 292.039L346.858 297ZM314.258 283.6L310.655 287.067L310.672 287.084L310.689 287.102L314.258 283.6ZM307.658 238.2L303.118 236.105L303.118 236.105L307.658 238.2ZM317.858 224.8L314.679 220.94L314.651 220.964L314.623 220.987L317.858 224.8ZM334.258 216.2L335.749 220.972L335.78 220.963L335.81 220.953L334.258 216.2ZM384.258 218L386.181 213.385L386.181 213.385L384.258 218ZM404.858 232.6L408.411 236.118L411.724 232.772L408.582 229.264L404.858 232.6ZM384.658 253L380.871 256.265L384.404 260.363L388.211 256.518L384.658 253ZM372.458 243.6L370.072 247.994L370.146 248.034L370.222 248.072L372.458 243.6ZM339.458 243.4L342.379 247.458L342.379 247.458L339.458 243.4ZM338.258 263.8L335.037 267.625L335.085 267.665L335.134 267.704L338.258 263.8ZM351.058 268.4L351.845 263.462L351.843 263.462L351.058 268.4ZM364.858 270.6L364.071 275.538L364.08 275.539L364.858 270.6ZM396.858 284L393.392 287.604L393.41 287.622L393.429 287.639L396.858 284ZM393.058 344.8L389.804 341.004L389.777 341.027L389.75 341.051L393.058 344.8ZM376.058 354.2L377.555 358.971L377.597 358.957L377.639 358.943L376.058 354.2ZM352.858 352.4C341.132 352.4 331.522 350.422 323.837 346.7L319.478 355.7C328.86 360.244 340.05 362.4 352.858 362.4V352.4ZM323.894 346.728C315.884 342.723 309.13 337.628 303.574 331.455L296.141 338.145C302.586 345.306 310.365 351.144 319.422 355.672L323.894 346.728ZM303.411 338.318L323.411 318.118L316.305 311.082L296.305 331.282L303.411 338.318ZM316.118 317.919C326.503 329.62 339.516 335.6 354.858 335.6V325.6C342.467 325.6 332.146 320.913 323.597 311.281L316.118 317.919ZM354.858 335.6C362.862 335.6 369.8 333.98 374.7 329.806L368.215 322.194C365.916 324.153 361.787 325.6 354.858 325.6V335.6ZM374.7 329.806C379.503 325.715 381.858 320.213 381.858 313.8H371.858C371.858 317.521 370.613 320.152 368.215 322.194L374.7 329.806ZM381.858 313.8C381.858 308.963 380.499 304.561 377.482 300.979L369.833 307.421C371.084 308.905 371.858 310.904 371.858 313.8H381.858ZM377.562 301.077C374.163 296.828 368.13 294.817 361.365 293.85L359.951 303.75C366.252 304.65 368.886 306.239 369.753 307.323L377.562 301.077ZM361.305 293.842L347.505 292.042L346.211 301.958L360.011 303.758L361.305 293.842ZM347.483 292.039C333.26 290.245 323.66 286.043 317.827 280.098L310.689 287.102C318.723 295.29 330.856 300.021 346.232 301.961L347.483 292.039ZM317.861 280.133C312.129 274.176 309.058 266.111 309.058 255.4H299.058C299.058 268.156 302.787 278.89 310.655 287.067L317.861 280.133ZM309.058 255.4C309.058 249.788 310.128 244.779 312.198 240.295L303.118 236.105C300.387 242.021 299.058 248.479 299.058 255.4H309.058ZM312.198 240.295C314.29 235.761 317.243 231.879 321.093 228.613L314.623 220.987C309.673 225.188 305.825 230.239 303.118 236.105L312.198 240.295ZM321.036 228.66C325.006 225.391 329.879 222.807 335.749 220.972L332.766 211.428C325.837 213.593 319.776 216.743 314.679 220.94L321.036 228.66ZM335.81 220.953C341.752 219.013 348.615 218 356.458 218V208C347.767 208 339.83 209.121 332.706 211.447L335.81 220.953ZM356.458 218C366.47 218 375.06 219.584 382.335 222.615L386.181 213.385C377.455 209.749 367.513 208 356.458 208V218ZM382.335 222.615C389.653 225.665 395.902 230.097 401.134 235.936L408.582 229.264C402.347 222.303 394.863 217.002 386.181 213.385L382.335 222.615ZM401.305 229.082L381.105 249.482L388.211 256.518L408.411 236.118L401.305 229.082ZM388.445 249.735C384.658 245.342 380.055 241.808 374.694 239.128L370.222 248.072C374.461 250.192 377.991 252.925 380.871 256.265L388.445 249.735ZM374.843 239.206C369.23 236.159 362.407 234.8 354.658 234.8V244.8C361.308 244.8 366.352 245.975 370.072 247.994L374.843 239.206ZM354.658 234.8C347.434 234.8 341.116 236.045 336.536 239.342L342.379 247.458C344.466 245.955 348.282 244.8 354.658 244.8V234.8ZM336.536 239.342C331.839 242.724 329.458 247.599 329.458 253.4H339.458C339.458 250.668 340.41 248.876 342.379 247.458L336.536 239.342ZM329.458 253.4C329.458 258.992 330.941 264.175 335.037 267.625L341.478 259.975C340.508 259.158 339.458 257.408 339.458 253.4H329.458ZM335.134 267.704C338.809 270.644 344.1 272.356 350.272 273.338L351.843 263.462C346.282 262.577 343.04 261.222 341.381 259.896L335.134 267.704ZM350.271 273.338L364.071 275.538L365.645 265.662L351.845 263.462L350.271 273.338ZM364.08 275.539C377.958 277.724 387.488 281.927 393.392 287.604L400.323 280.396C392.361 272.74 380.557 268.01 365.635 265.661L364.08 275.539ZM393.429 287.639C399.102 292.985 402.258 300.845 402.258 312H412.258C412.258 298.888 408.48 288.082 400.287 280.361L393.429 287.639ZM402.258 312C402.258 318.054 401.171 323.509 399.062 328.43L408.254 332.37C410.944 326.091 412.258 319.28 412.258 312H402.258ZM399.062 328.43C396.966 333.32 393.895 337.497 389.804 341.004L396.312 348.596C401.554 344.103 405.549 338.68 408.254 332.37L399.062 328.43ZM389.75 341.051C385.804 344.532 380.756 347.363 374.477 349.457L377.639 358.943C384.959 356.503 391.245 353.068 396.366 348.549L389.75 341.051ZM374.561 349.429C368.337 351.382 361.122 352.4 352.858 352.4V362.4C361.926 362.4 370.179 361.285 377.555 358.971L374.561 349.429ZM443.728 351.2L441.492 355.672L441.52 355.686L441.548 355.7L443.728 351.2ZM421.928 334.8L418.375 331.282L415.054 334.636L418.212 338.145L421.928 334.8ZM441.928 314.6L445.668 311.281L442.128 307.292L438.375 311.082L441.928 314.6ZM493.528 326L496.77 329.806L496.77 329.806L493.528 326ZM495.728 304.2L491.824 307.323L491.863 307.373L491.904 307.421L495.728 304.2ZM482.728 298.8L483.435 293.85L483.405 293.846L483.375 293.842L482.728 298.8ZM468.928 297L469.575 292.042L469.564 292.041L469.554 292.039L468.928 297ZM436.328 283.6L432.725 287.067L432.742 287.084L432.759 287.102L436.328 283.6ZM429.728 238.2L425.188 236.105L425.188 236.105L429.728 238.2ZM439.928 224.8L436.75 220.94L436.721 220.964L436.693 220.987L439.928 224.8ZM456.328 216.2L457.82 220.972L457.85 220.963L457.88 220.953L456.328 216.2ZM506.328 218L508.251 213.385L508.251 213.385L506.328 218ZM526.928 232.6L530.481 236.118L533.795 232.772L530.652 229.264L526.928 232.6ZM506.728 253L502.941 256.265L506.474 260.363L510.281 256.518L506.728 253ZM494.528 243.6L492.143 247.994L492.217 248.034L492.292 248.072L494.528 243.6ZM461.528 243.4L464.45 247.458L464.45 247.458L461.528 243.4ZM460.328 263.8L457.107 267.625L457.156 267.665L457.205 267.704L460.328 263.8ZM473.128 268.4L473.915 263.462L473.914 263.462L473.128 268.4ZM486.928 270.6L486.141 275.538L486.151 275.539L486.928 270.6ZM518.928 284L515.463 287.604L515.481 287.622L515.499 287.639L518.928 284ZM515.128 344.8L511.874 341.004L511.847 341.027L511.82 341.051L515.128 344.8ZM498.128 354.2L499.625 358.971L499.667 358.957L499.709 358.943L498.128 354.2ZM474.928 352.4C463.203 352.4 453.592 350.422 445.908 346.7L441.548 355.7C450.931 360.244 462.12 362.4 474.928 362.4V352.4ZM445.964 346.728C437.954 342.723 431.2 337.628 425.645 331.455L418.212 338.145C424.656 345.306 432.435 351.144 441.492 355.672L445.964 346.728ZM425.481 338.318L445.481 318.118L438.375 311.082L418.375 331.282L425.481 338.318ZM438.189 317.919C448.573 329.62 461.586 335.6 476.928 335.6V325.6C464.537 325.6 454.216 320.913 445.668 311.281L438.189 317.919ZM476.928 335.6C484.932 335.6 491.87 333.98 496.77 329.806L490.286 322.194C487.986 324.153 483.857 325.6 476.928 325.6V335.6ZM496.77 329.806C501.573 325.715 503.928 320.213 503.928 313.8H493.928C493.928 317.521 492.683 320.152 490.286 322.194L496.77 329.806ZM503.928 313.8C503.928 308.963 502.569 304.561 499.553 300.979L491.904 307.421C493.154 308.905 493.928 310.904 493.928 313.8H503.928ZM499.632 301.077C496.233 296.828 490.2 294.817 483.435 293.85L482.021 303.75C488.323 304.65 490.956 306.239 491.824 307.323L499.632 301.077ZM483.375 293.842L469.575 292.042L468.281 301.958L482.081 303.758L483.375 293.842ZM469.554 292.039C455.33 290.245 445.73 286.043 439.897 280.098L432.759 287.102C440.793 295.29 452.926 300.021 468.302 301.961L469.554 292.039ZM439.931 280.133C434.199 274.176 431.128 266.111 431.128 255.4H421.128C421.128 268.156 424.857 278.89 432.725 287.067L439.931 280.133ZM431.128 255.4C431.128 249.788 432.199 244.779 434.268 240.295L425.188 236.105C422.458 242.021 421.128 248.479 421.128 255.4H431.128ZM434.268 240.295C436.361 235.761 439.313 231.879 443.163 228.613L436.693 220.987C431.743 225.188 427.896 230.239 425.188 236.105L434.268 240.295ZM443.107 228.66C447.076 225.391 451.949 222.807 457.82 220.972L454.837 211.428C447.907 213.593 441.847 216.743 436.75 220.94L443.107 228.66ZM457.88 220.953C463.823 219.013 470.685 218 478.528 218V208C469.838 208 461.9 209.121 454.776 211.447L457.88 220.953ZM478.528 218C488.54 218 497.13 219.584 504.405 222.615L508.251 213.385C499.526 209.749 489.583 208 478.528 208V218ZM504.405 222.615C511.723 225.665 517.973 230.097 523.204 235.936L530.652 229.264C524.417 222.303 516.933 217.002 508.251 213.385L504.405 222.615ZM523.375 229.082L503.175 249.482L510.281 256.518L530.481 236.118L523.375 229.082ZM510.515 249.735C506.728 245.342 502.125 241.808 496.764 239.128L492.292 248.072C496.531 250.192 500.062 252.925 502.941 256.265L510.515 249.735ZM496.914 239.206C491.3 236.159 484.478 234.8 476.728 234.8V244.8C483.379 244.8 488.423 245.975 492.143 247.994L496.914 239.206ZM476.728 234.8C469.504 234.8 463.186 236.045 458.607 239.342L464.45 247.458C466.536 245.955 470.352 244.8 476.728 244.8V234.8ZM458.607 239.342C453.91 242.724 451.528 247.599 451.528 253.4H461.528C461.528 250.668 462.48 248.876 464.45 247.458L458.607 239.342ZM451.528 253.4C451.528 258.992 453.011 264.175 457.107 267.625L463.549 259.975C462.578 259.158 461.528 257.408 461.528 253.4H451.528ZM457.205 267.704C460.88 270.644 466.17 272.356 472.343 273.338L473.914 263.462C468.353 262.577 465.11 261.222 463.452 259.896L457.205 267.704ZM472.341 273.338L486.141 275.538L487.715 265.662L473.915 263.462L472.341 273.338ZM486.151 275.539C500.029 277.724 509.558 281.927 515.463 287.604L522.394 280.396C514.431 272.74 502.627 268.01 487.706 265.661L486.151 275.539ZM515.499 287.639C521.172 292.985 524.328 300.845 524.328 312H534.328C534.328 298.888 530.551 288.082 522.357 280.361L515.499 287.639ZM524.328 312C524.328 318.054 523.241 323.509 521.132 328.43L530.324 332.37C533.015 326.091 534.328 319.28 534.328 312H524.328ZM521.132 328.43C519.037 333.32 515.965 337.497 511.874 341.004L518.382 348.596C523.625 344.103 527.62 338.68 530.324 332.37L521.132 328.43ZM511.82 341.051C507.874 344.532 502.827 347.363 496.547 349.457L499.709 358.943C507.03 356.503 513.315 353.068 518.436 348.549L511.82 341.051ZM496.631 349.429C490.407 351.382 483.193 352.4 474.928 352.4V362.4C483.997 362.4 492.249 361.285 499.625 358.971L496.631 349.429ZM549.133 355H544.133V360H549.133V355ZM549.133 330.8V325.8H544.133V330.8H549.133ZM567.133 330.8V335.8H572.133V330.8H567.133ZM567.133 239.6H572.133V234.6H567.133V239.6ZM549.133 239.6H544.133V244.6H549.133V239.6ZM549.133 215.4V210.4H544.133V215.4H549.133ZM615.533 215.4H620.533V210.4H615.533V215.4ZM615.533 239.6V244.6H620.533V239.6H615.533ZM597.533 239.6V234.6H592.533V239.6H597.533ZM597.533 330.8H592.533V335.8H597.533V330.8ZM615.533 330.8H620.533V325.8H615.533V330.8ZM615.533 355V360H620.533V355H615.533ZM554.133 355V330.8H544.133V355H554.133ZM549.133 335.8H567.133V325.8H549.133V335.8ZM572.133 330.8V239.6H562.133V330.8H572.133ZM567.133 234.6H549.133V244.6H567.133V234.6ZM554.133 239.6V215.4H544.133V239.6H554.133ZM549.133 220.4H615.533V210.4H549.133V220.4ZM610.533 215.4V239.6H620.533V215.4H610.533ZM615.533 234.6H597.533V244.6H615.533V234.6ZM592.533 239.6V330.8H602.533V239.6H592.533ZM597.533 335.8H615.533V325.8H597.533V335.8ZM610.533 330.8V355H620.533V330.8H610.533ZM615.533 350H549.133V360H615.533V350ZM683.461 289L678.951 291.158L679.035 291.335L679.134 291.505L683.461 289ZM670.061 261L674.571 258.842L673.211 256H670.061V261ZM669.461 261V256H664.461V261H669.461ZM669.461 355V360H674.461V355H669.461ZM640.861 355H635.861V360H640.861V355ZM640.861 215.4V210.4H635.861V215.4H640.861ZM674.061 215.4L678.388 212.895L676.944 210.4H674.061V215.4ZM712.261 281.4L716.771 279.242L716.687 279.065L716.588 278.895L712.261 281.4ZM725.661 309.4L721.151 311.558L722.511 314.4H725.661V309.4ZM726.261 309.4V314.4H731.261V309.4H726.261ZM726.261 215.4V210.4H721.261V215.4H726.261ZM754.861 215.4H759.861V210.4H754.861V215.4ZM754.861 355V360H759.861V355H754.861ZM721.661 355L717.334 357.505L718.778 360H721.661V355ZM687.971 286.842L674.571 258.842L665.551 263.158L678.951 291.158L687.971 286.842ZM670.061 256H669.461V266H670.061V256ZM664.461 261V355H674.461V261H664.461ZM669.461 350H640.861V360H669.461V350ZM645.861 355V215.4H635.861V355H645.861ZM640.861 220.4H674.061V210.4H640.861V220.4ZM669.734 217.905L707.934 283.905L716.588 278.895L678.388 212.895L669.734 217.905ZM707.751 283.558L721.151 311.558L730.171 307.242L716.771 279.242L707.751 283.558ZM725.661 314.4H726.261V304.4H725.661V314.4ZM731.261 309.4V215.4H721.261V309.4H731.261ZM726.261 220.4H754.861V210.4H726.261V220.4ZM749.861 215.4V355H759.861V215.4H749.861ZM754.861 350H721.661V360H754.861V350ZM725.988 352.495L687.788 286.495L679.134 291.505L717.334 357.505L725.988 352.495ZM874.188 332.8H879.188V327.8H874.188V332.8ZM873.188 332.8V327.8H868.886L868.244 332.054L873.188 332.8ZM862.388 350.4L859.36 346.421L859.36 346.421L862.388 350.4ZM814.988 352.8L812.965 357.373L812.965 357.373L814.988 352.8ZM796.788 339.2L793.009 342.475L793.009 342.475L796.788 339.2ZM784.588 316.8L789.338 315.24L789.338 315.24L784.588 316.8ZM784.788 254.6L789.524 256.202L789.524 256.202L784.788 254.6ZM797.588 231.8L793.895 228.429L793.875 228.451L793.855 228.473L797.588 231.8ZM817.588 217.8L819.499 222.42L819.499 222.42L817.588 217.8ZM875.787 221.2L873.206 225.482L873.229 225.496L873.252 225.51L875.787 221.2ZM897.188 245.4L899.672 249.739L903.712 247.426L901.693 243.231L897.188 245.4ZM872.388 259.6L867.73 261.418L869.838 266.821L874.872 263.939L872.388 259.6ZM862.388 245.8L859.143 249.604L859.176 249.632L859.209 249.66L862.388 245.8ZM820.788 248.2L824.28 251.778L824.28 251.778L820.788 248.2ZM820.788 322.2L817.252 325.736L817.273 325.757L817.295 325.778L820.788 322.2ZM853.988 329.2L855.154 334.062L855.245 334.04L855.336 334.015L853.988 329.2ZM862.788 325.2L865.611 329.327L865.683 329.277L865.754 329.225L862.788 325.2ZM868.588 318.6L864.26 316.095L864.21 316.182L864.163 316.271L868.588 318.6ZM870.788 302.6H875.788V297.6H870.788V302.6ZM844.788 302.6H839.788V307.6H844.788V302.6ZM844.788 277.2V272.2H839.788V277.2H844.788ZM899.788 277.2H904.788V272.2H899.788V277.2ZM899.788 355V360H904.788V355H899.788ZM874.188 355H869.188V360H874.188V355ZM874.188 327.8H873.188V337.8H874.188V327.8ZM868.244 332.054C867.387 337.728 864.548 342.474 859.36 346.421L865.415 354.379C872.494 348.993 876.855 342.005 878.132 333.546L868.244 332.054ZM859.36 346.421C854.366 350.22 847.223 352.4 837.388 352.4V362.4C848.619 362.4 858.142 359.913 865.415 354.379L859.36 346.421ZM837.388 352.4C830.045 352.4 823.271 350.997 817.01 348.227L812.965 357.373C820.57 360.737 828.73 362.4 837.388 362.4V352.4ZM817.01 348.227C810.782 345.473 805.307 341.396 800.566 335.925L793.009 342.475C798.668 349.004 805.326 353.994 812.965 357.373L817.01 348.227ZM800.566 335.925C795.873 330.51 792.102 323.657 789.338 315.24L779.837 318.36C782.94 327.809 787.302 335.89 793.009 342.475L800.566 335.925ZM789.338 315.24C786.605 306.917 785.188 297.129 785.188 285.8H775.188C775.188 297.938 776.703 308.816 779.837 318.36L789.338 315.24ZM785.188 285.8C785.188 274.493 786.666 264.651 789.524 256.202L780.051 252.998C776.776 262.682 775.188 273.64 775.188 285.8H785.188ZM789.524 256.202C792.41 247.668 796.368 240.683 801.32 235.127L793.855 228.473C787.874 235.184 783.298 243.399 780.051 252.998L789.524 256.202ZM801.28 235.171C806.381 229.584 812.439 225.342 819.499 222.42L815.676 213.18C807.27 216.658 799.994 221.749 793.895 228.429L801.28 235.171ZM819.499 222.42C826.552 219.502 834.491 218 843.388 218V208C833.35 208 824.09 209.698 815.676 213.18L819.499 222.42ZM843.388 218C855.18 218 865.051 220.565 873.206 225.482L878.369 216.918C868.39 210.902 856.662 208 843.388 208V218ZM873.252 225.51C881.35 230.273 887.851 237.534 892.683 247.569L901.693 243.231C896.124 231.666 888.359 222.794 878.323 216.89L873.252 225.51ZM894.703 241.061L869.903 255.261L874.872 263.939L899.672 249.739L894.703 241.061ZM877.045 257.782C874.601 251.519 870.758 246.216 865.566 241.94L859.209 249.66C863.083 252.85 865.907 256.748 867.73 261.418L877.045 257.782ZM865.632 241.996C859.911 237.116 852.276 235 843.388 235V245C850.766 245 855.798 246.751 859.143 249.604L865.632 241.996ZM843.388 235C832.907 235 824.018 238.059 817.295 244.622L824.28 251.778C828.757 247.408 834.935 245 843.388 245V235ZM817.295 244.622C810.34 251.411 807.388 261.587 807.388 274H817.388C817.388 262.946 820.035 255.922 824.28 251.778L817.295 244.622ZM807.388 274V296.4H817.388V274H807.388ZM807.388 296.4C807.388 308.711 810.354 318.838 817.252 325.736L824.323 318.664C820.021 314.362 817.388 307.289 817.388 296.4H807.388ZM817.295 325.778C824.018 332.341 832.907 335.4 843.388 335.4V325.4C834.935 325.4 828.757 322.992 824.28 318.622L817.295 325.778ZM843.388 335.4C847.479 335.4 851.407 334.961 855.154 334.062L852.821 324.338C849.902 325.039 846.762 325.4 843.388 325.4V335.4ZM855.336 334.015C859.129 332.953 862.573 331.405 865.611 329.327L859.964 321.073C857.935 322.462 855.513 323.581 852.639 324.385L855.336 334.015ZM865.754 329.225C868.834 326.956 871.293 324.195 873.012 320.929L864.163 316.271C863.215 318.072 861.808 319.711 859.822 321.175L865.754 329.225ZM872.915 321.105C874.897 317.681 875.788 313.783 875.788 309.6H865.788C865.788 312.35 865.211 314.452 864.26 316.095L872.915 321.105ZM875.788 309.6V302.6H865.788V309.6H875.788ZM870.788 297.6H844.788V307.6H870.788V297.6ZM849.788 302.6V277.2H839.788V302.6H849.788ZM844.788 282.2H899.788V272.2H844.788V282.2ZM894.788 277.2V355H904.788V277.2H894.788ZM899.788 350H874.188V360H899.788V350ZM879.188 355V332.8H869.188V355H879.188Z" fill="#9AC6C9"/>
<path d="M135.615 166L104.015 26.4H134.015L147.215 93.4L154.615 132.2H155.215L164.015 93.4L179.415 26.4H212.615L228.215 93.4L236.815 132.2H237.415L244.815 93.4L258.215 26.4H287.015L254.615 166H220.015L202.415 90.4L195.615 59.8H195.015L188.015 90.4L170.415 166H135.615ZM391.746 108.8H338.546V166H308.146V26.4H338.546V82H391.746V26.4H422.146V166H391.746V108.8ZM538.873 166L528.873 132.8H482.273L472.273 166H441.473L487.473 26.4H525.073L570.473 166H538.873ZM505.873 54H504.873L489.473 107H521.473L505.873 54ZM634.901 53.4V166H604.501V53.4H566.701V26.4H672.701V53.4H634.901ZM710.451 16C716.451 16 720.784 17.4 723.451 20.2C726.251 22.8667 727.651 26.2667 727.651 30.4V34.6C727.651 38.4667 727.051 42.4 725.851 46.4C724.784 50.2667 723.251 54 721.251 57.6C719.384 61.2 717.117 64.6 714.451 67.8C711.784 70.8667 708.917 73.6 705.851 76H687.251C691.651 72 695.384 67.9333 698.451 63.8C701.651 59.6667 704.051 55.0667 705.651 50C701.384 49.2 698.251 47.4667 696.251 44.8C694.251 42 693.251 38.8667 693.251 35.4V30.4C693.251 26.2667 694.584 22.8667 697.251 20.2C700.051 17.4 704.451 16 710.451 16ZM793.58 168.4C781.314 168.4 770.914 166.333 762.38 162.2C753.847 157.933 746.58 152.467 740.58 145.8L760.58 125.6C770.047 136.267 781.714 141.6 795.58 141.6C803.047 141.6 808.58 140.067 812.18 137C815.78 133.933 817.58 129.867 817.58 124.8C817.58 120.933 816.514 117.733 814.38 115.2C812.247 112.533 807.914 110.733 801.38 109.8L787.58 108C772.78 106.133 761.914 101.667 754.98 94.6C748.18 87.5333 744.78 78.1333 744.78 66.4C744.78 60.1333 745.98 54.4 748.38 49.2C750.78 44 754.18 39.5333 758.58 35.8C763.114 32.0667 768.58 29.2 774.98 27.2C781.514 25.0667 788.914 24 797.18 24C807.714 24 816.98 25.6667 824.98 29C832.98 32.3333 839.847 37.2 845.58 43.6L825.38 64C822.047 60.1333 817.98 57 813.18 54.6C808.514 52.0667 802.58 50.8 795.38 50.8C788.58 50.8 783.514 52 780.18 54.4C776.847 56.8 775.18 60.1333 775.18 64.4C775.18 69.2 776.447 72.6667 778.98 74.8C781.647 76.9333 785.914 78.4667 791.78 79.4L805.58 81.6C819.98 83.8667 830.647 88.3333 837.58 95C844.514 101.533 847.98 110.867 847.98 123C847.98 129.667 846.78 135.8 844.38 141.4C841.98 147 838.447 151.8 833.78 155.8C829.247 159.8 823.58 162.933 816.78 165.2C809.98 167.333 802.247 168.4 793.58 168.4Z" fill="#A2C7CE"/>
<path d="M214.677 550V410.4H307.277V437.4H245.077V466H298.077V492.8H245.077V550H214.677ZM362.07 550H331.67V410.4H397.87C404.27 410.4 410.07 411.467 415.27 413.6C420.47 415.733 424.87 418.8 428.47 422.8C432.203 426.667 435.07 431.333 437.07 436.8C439.07 442.267 440.07 448.333 440.07 455C440.07 464.467 437.936 472.733 433.67 479.8C429.536 486.867 423.203 492 414.67 495.2L442.07 550H408.27L383.87 498.8H362.07V550ZM394.07 473.2C398.603 473.2 402.136 472.067 404.67 469.8C407.336 467.4 408.67 463.933 408.67 459.4V450.6C408.67 446.067 407.336 442.667 404.67 440.4C402.136 438 398.603 436.8 394.07 436.8H362.07V473.2H394.07ZM520.482 552.4C511.282 552.4 502.882 550.867 495.282 547.8C487.682 544.733 481.215 540.2 475.882 534.2C470.549 528.067 466.415 520.533 463.482 511.6C460.549 502.533 459.082 492.067 459.082 480.2C459.082 468.333 460.549 457.933 463.482 449C466.415 439.933 470.549 432.4 475.882 426.4C481.215 420.267 487.682 415.667 495.282 412.6C502.882 409.533 511.282 408 520.482 408C529.682 408 538.082 409.533 545.682 412.6C553.282 415.667 559.749 420.267 565.082 426.4C570.415 432.4 574.549 439.933 577.482 449C580.415 457.933 581.882 468.333 581.882 480.2C581.882 492.067 580.415 502.533 577.482 511.6C574.549 520.533 570.415 528.067 565.082 534.2C559.749 540.2 553.282 544.733 545.682 547.8C538.082 550.867 529.682 552.4 520.482 552.4ZM520.482 525.4C529.682 525.4 536.815 522.4 541.882 516.4C547.082 510.4 549.682 501.8 549.682 490.6V469.8C549.682 458.6 547.082 450 541.882 444C536.815 438 529.682 435 520.482 435C511.282 435 504.082 438 498.882 444C493.815 450 491.282 458.6 491.282 469.8V490.6C491.282 501.8 493.815 510.4 498.882 516.4C504.082 522.4 511.282 525.4 520.482 525.4ZM711.655 458.4H711.055L700.855 478.8L673.655 528.2L647.055 479L636.455 457H635.855V550H607.255V410.4H639.455L673.655 475.8H674.055L707.855 410.4H740.255V550H711.655V458.4Z" fill="#A2C7CE"/>
<path d="M143.952 889.8C125.018 889.8 107.952 886.867 92.7516 881C77.5516 874.867 64.6182 865.933 53.9516 854.2C43.2849 842.2 35.0182 827.4 29.1516 809.8C23.2849 791.933 20.3516 771.133 20.3516 747.4C20.3516 723.933 23.2849 703.133 29.1516 685C35.0182 666.6 43.2849 651.267 53.9516 639C64.6182 626.467 77.5516 617 92.7516 610.6C107.952 604.2 125.018 601 143.952 601C169.818 601 191.152 606.333 207.952 617C224.752 627.4 238.218 643.933 248.352 666.6L195.952 693.8C192.218 682.067 186.352 672.733 178.352 665.8C170.618 658.6 159.152 655 143.952 655C126.085 655 111.685 660.867 100.752 672.6C90.0849 684.067 84.7516 700.867 84.7516 723V767.8C84.7516 789.933 90.0849 806.867 100.752 818.6C111.685 830.067 126.085 835.8 143.952 835.8C158.885 835.8 170.752 831.8 179.552 823.8C188.618 815.533 195.285 805.667 199.552 794.2L249.152 823C238.752 844.333 225.018 860.867 207.952 872.6C191.152 884.067 169.818 889.8 143.952 889.8ZM382.098 889.8C357.565 889.8 336.765 885.667 319.698 877.4C302.632 868.867 288.098 857.933 276.098 844.6L316.098 804.2C335.032 825.533 358.365 836.2 386.098 836.2C401.032 836.2 412.098 833.133 419.298 827C426.498 820.867 430.098 812.733 430.098 802.6C430.098 794.867 427.965 788.467 423.698 783.4C419.432 778.067 410.765 774.467 397.698 772.6L370.098 769C340.498 765.267 318.765 756.333 304.898 742.2C291.298 728.067 284.498 709.267 284.498 685.8C284.498 673.267 286.898 661.8 291.698 651.4C296.498 641 303.298 632.067 312.098 624.6C321.165 617.133 332.098 611.4 344.898 607.4C357.965 603.133 372.765 601 389.298 601C410.365 601 428.898 604.333 444.898 611C460.898 617.667 474.632 627.4 486.098 640.2L445.698 681C439.032 673.267 430.898 667 421.298 662.2C411.965 657.133 400.098 654.6 385.698 654.6C372.098 654.6 361.965 657 355.298 661.8C348.632 666.6 345.298 673.267 345.298 681.8C345.298 691.4 347.832 698.333 352.898 702.6C358.232 706.867 366.765 709.933 378.498 711.8L406.098 716.2C434.898 720.733 456.232 729.667 470.098 743C483.965 756.067 490.898 774.733 490.898 799C490.898 812.333 488.498 824.6 483.698 835.8C478.898 847 471.832 856.6 462.498 864.6C453.432 872.6 442.098 878.867 428.498 883.4C414.898 887.667 399.432 889.8 382.098 889.8ZM626.239 889.8C601.706 889.8 580.906 885.667 563.839 877.4C546.772 868.867 532.239 857.933 520.239 844.6L560.239 804.2C579.172 825.533 602.506 836.2 630.239 836.2C645.172 836.2 656.239 833.133 663.439 827C670.639 820.867 674.239 812.733 674.239 802.6C674.239 794.867 672.106 788.467 667.839 783.4C663.572 778.067 654.906 774.467 641.839 772.6L614.239 769C584.639 765.267 562.906 756.333 549.039 742.2C535.439 728.067 528.639 709.267 528.639 685.8C528.639 673.267 531.039 661.8 535.839 651.4C540.639 641 547.439 632.067 556.239 624.6C565.306 617.133 576.239 611.4 589.039 607.4C602.106 603.133 616.906 601 633.439 601C654.506 601 673.039 604.333 689.039 611C705.039 617.667 718.772 627.4 730.239 640.2L689.839 681C683.172 673.267 675.039 667 665.439 662.2C656.106 657.133 644.239 654.6 629.839 654.6C616.239 654.6 606.106 657 599.439 661.8C592.772 666.6 589.439 673.267 589.439 681.8C589.439 691.4 591.972 698.333 597.039 702.6C602.372 706.867 610.906 709.933 622.639 711.8L650.239 716.2C679.039 720.733 700.372 729.667 714.239 743C728.106 756.067 735.039 774.733 735.039 799C735.039 812.333 732.639 824.6 727.839 835.8C723.039 847 715.972 856.6 706.639 864.6C697.572 872.6 686.239 878.867 672.639 883.4C659.039 887.667 643.572 889.8 626.239 889.8ZM817.848 791.8V730.6C838.915 729.8 854.648 726.333 865.048 720.2C875.715 713.8 881.048 703.133 881.048 688.2V682.6C881.048 672.467 877.982 664.733 871.848 659.4C865.982 654.067 858.248 651.4 848.648 651.4C838.248 651.4 829.582 654.6 822.648 661C815.982 667.4 811.448 675.533 809.048 685.4L760.248 665C762.648 657 766.115 649.267 770.648 641.8C775.182 634.067 781.048 627.267 788.248 621.4C795.715 615.267 804.515 610.333 814.648 606.6C825.048 602.867 837.048 601 850.648 601C864.515 601 877.182 603 888.648 607C900.115 611 909.982 616.6 918.248 623.8C926.515 631 932.782 639.667 937.048 649.8C941.582 659.933 943.848 671.133 943.848 683.4C943.848 694.6 941.982 704.733 938.248 713.8C934.515 722.867 929.448 730.867 923.048 737.8C916.648 744.467 909.182 749.933 900.648 754.2C892.115 758.467 883.182 761.4 873.848 763V791.8H817.848ZM846.648 889.8C833.848 889.8 824.648 886.867 819.048 881C813.715 875.133 811.048 867.933 811.048 859.4V849.8C811.048 841.267 813.715 834.067 819.048 828.2C824.648 822.333 833.848 819.4 846.648 819.4C859.448 819.4 868.515 822.333 873.848 828.2C879.448 834.067 882.248 841.267 882.248 849.8V859.4C882.248 867.933 879.448 875.133 873.848 881C868.515 886.867 859.448 889.8 846.648 889.8Z" fill="#A2C7CE"/>
</g>
<defs>
<clipPath id="clip0">
<rect width="955" height="925" fill="white"/>
</clipPath>
</defs>
</svg>
